<?xml version="1.0" standalone="no"?>
<!DOCTYPE svg PUBLIC "-//W3C//DTD SVG 20010904//EN"
 "http://www.w3.org/TR/2001/REC-SVG-20010904/DTD/svg10.dtd">
<svg version="1.0" xmlns="http://www.w3.org/2000/svg"
 width="2048.000000pt" height="2048.000000pt" viewBox="0 0 2048.000000 2048.000000"
 preserveAspectRatio="xMidYMid meet">
<style>
  path {
    fill: #722F37;
  }
</style>
<g transform="translate(0.000000,2048.000000) scale(0.100000,-0.100000)"
fill="#722F37" stroke="none">
<path d="M6465 17390 l-530 -5 0 -6410 0 -6409 55 -31 c30 -17 151 -94 268
-171 332 -217 511 -321 857 -498 585 -298 1123 -503 1690 -645 278 -69 625
-121 858 -128 164 -5 167 -6 167 -28 0 -22 1 -22 221 -28 292 -7 851 3 846 16
-1 5 -106 11 -252 14 -259 5 -345 13 -144 13 175 0 543 18 591 29 24 6 95 15
158 21 63 6 153 20 200 31 46 11 114 24 151 29 69 10 278 68 341 94 20 9 58
20 85 26 129 28 406 116 458 146 22 12 86 38 141 57 129 45 238 91 274 117 15
11 34 20 41 20 7 0 20 6 28 14 9 7 41 23 71 34 155 58 292 120 274 124 -13 4
4 16 56 40 41 19 109 51 150 71 41 19 92 42 113 51 28 11 37 21 37 39 0 19 8
26 43 36 41 12 221 114 232 131 3 4 15 6 28 4 18 -4 19 -3 4 4 -18 7 -18 8 0
24 23 20 68 43 137 69 31 11 54 24 51 28 -5 8 25 26 62 36 16 4 23 15 25 38 3
29 7 32 63 46 50 12 56 16 35 21 -23 6 -20 8 26 26 28 10 51 24 50 29 0 6 20
16 47 24 l47 15 0 6411 0 6412 -242 7 c-289 9 -7049 14 -7813 6z m3876 -1366
c22 -71 60 -198 84 -283 25 -84 48 -157 51 -162 3 -5 135 -9 295 -9 176 0 289
-4 289 -10 0 -30 -30 -61 -106 -108 -46 -30 -113 -77 -148 -105 -35 -29 -91
-72 -125 -96 -90 -64 -89 -57 -10 -306 61 -195 94 -301 103 -337 11 -47 -19
-34 -112 47 -79 67 -177 143 -321 247 l-51 37 -102 -69 c-57 -38 -141 -101
-188 -140 -94 -79 -188 -140 -215 -140 -16 0 -16 2 -2 23 22 34 71 177 129
377 27 96 51 180 52 186 0 6 -62 60 -139 120 -192 150 -204 158 -252 183 -40
20 -43 25 -43 61 l0 39 208 -6 c115 -3 243 -2 284 1 l76 8 7 36 c6 35 116 380
157 495 13 37 24 55 30 49 6 -6 28 -68 49 -138z m-2026 -264 c8 -15 23 -64 35
-111 27 -105 108 -373 122 -404 16 -35 61 -39 355 -33 214 5 253 4 253 -8 0
-8 -12 -19 -27 -25 -16 -6 -41 -23 -58 -38 -34 -31 -263 -209 -342 -265 -29
-21 -53 -39 -53 -39 1 -8 178 -580 188 -606 7 -19 -64 29 -213 143 -259 199
-254 196 -288 196 -26 0 -57 -19 -147 -90 -63 -50 -146 -113 -185 -141 -38
-27 -77 -56 -87 -63 -9 -8 -19 -11 -23 -8 -4 4 -5 1 -3 -6 2 -8 -7 -21 -19
-29 -22 -15 -23 -14 -23 15 0 17 20 91 44 164 59 178 109 336 117 372 11 45
-4 69 -69 117 -138 101 -299 223 -327 249 -16 15 -43 35 -60 43 -28 15 -20 16
145 17 96 0 238 3 315 6 l140 7 44 161 c24 89 56 208 71 266 37 137 49 164 67
148 8 -6 20 -23 28 -38z m3962 9 c16 -46 124 -443 136 -501 l10 -48 201 -2
c110 -2 249 -3 309 -3 59 0 107 -2 107 -5 0 -6 -179 -150 -305 -245 -49 -37
-108 -83 -129 -101 l-39 -33 25 -88 c14 -49 51 -173 82 -277 31 -104 56 -203
56 -219 l0 -31 -32 30 c-18 17 -58 48 -88 70 -30 21 -114 85 -186 141 -72 56
-142 106 -155 112 -36 13 -59 0 -254 -150 -141 -109 -246 -179 -269 -179 -2 0
24 87 59 193 105 320 128 398 119 406 -5 4 -27 20 -49 36 -22 16 -76 59 -120
95 -44 37 -102 82 -130 100 -27 19 -79 57 -113 84 l-64 51 297 6 c174 4 300
10 306 16 6 6 16 32 24 59 8 27 41 139 74 249 87 286 101 311 128 234z m-437
-2349 c479 -36 869 -202 1051 -448 67 -92 143 -249 174 -359 14 -51 37 -135
52 -185 50 -175 73 -457 73 -886 l0 -272 -685 0 -685 0 0 455 c0 480 -6 574
-44 641 -11 21 -40 52 -64 68 -38 27 -52 30 -136 34 -177 8 -241 -30 -287
-169 l-24 -74 0 -1460 0 -1460 23 -57 c31 -77 51 -99 119 -133 81 -41 181 -42
268 -2 138 64 135 50 147 672 5 275 11 506 13 513 4 9 148 12 680 12 l675 0 0
-322 c0 -309 -12 -596 -29 -703 -8 -44 -9 -38 -11 55 -3 144 -9 253 -15 258
-3 3 -5 -71 -5 -164 0 -232 -35 -433 -107 -612 -36 -91 -119 -224 -188 -299
-132 -146 -404 -280 -675 -332 -329 -64 -303 -61 -622 -61 -322 0 -330 1 -658
72 -190 41 -389 132 -517 236 -221 180 -309 359 -410 842 l-28 135 0 1385 0
1385 27 115 c15 63 30 131 33 150 13 69 77 257 119 345 86 182 256 354 444
449 164 83 460 158 687 175 162 12 451 12 605 1z m-4506 -462 c3 -205 8 -1203
11 -2218 3 -1015 7 -1858 9 -1875 1 -16 4 970 4 2193 l2 2222 403 2 402 3
-405 5 c-376 5 -405 6 -408 23 -3 16 29 17 595 15 l598 -3 3 -912 2 -913 275
0 275 0 0 917 0 916 238 -7 c130 -3 402 -9 605 -13 l367 -6 0 -76 c0 -89 -8
-104 -90 -176 -90 -78 -136 -142 -210 -290 -107 -214 -144 -380 -160 -715 -13
-287 -13 -2274 1 -2550 24 -500 150 -818 412 -1046 l47 -40 0 -107 0 -107
-605 0 -605 0 0 1165 0 1165 -275 0 -275 0 0 -1165 0 -1165 -352 0 c-194 0
-400 -2 -458 -5 -66 -2 -92 -1 -70 4 33 8 32 8 -20 11 -30 2 -59 4 -65 5 -5 2
-58 3 -117 4 l-108 1 0 92 c0 111 -10 109 -19 -4 -5 -68 -9 -83 -23 -86 -17
-3 -18 124 -18 2552 0 2183 2 2556 14 2556 12 0 15 -63 20 -372z m1269 -5987
c26 -14 27 -18 28 -90 2 -118 17 -144 18 -31 2 88 3 93 16 70 11 -20 14 -79
15 -287 l0 -263 -185 0 -185 0 0 185 0 185 -195 0 -195 0 1 -674 1 -675 182
-3 c99 -2 187 -1 194 1 9 2 12 51 12 197 l0 194 187 -2 187 -3 -3 -270 c-3
-282 -7 -311 -49 -349 -53 -47 -269 -62 -702 -48 l-284 9 -42 46 c-39 43 -42
52 -47 114 -7 94 -9 1549 -1 1594 3 20 18 52 34 70 l28 34 113 6 c63 3 278 5
479 5 289 -1 371 -4 393 -15z m665 -359 l2 -372 213 2 212 3 3 374 2 373 143
-6 c78 -3 157 -6 175 -6 l32 0 0 -935 0 -935 -177 2 -178 3 3 423 3 422 -215
0 -216 0 -2 -422 -3 -423 -170 -2 c-93 -2 -176 1 -184 6 -13 8 -16 108 -19
669 -3 362 -1 778 3 925 7 261 8 266 29 270 11 3 93 4 181 3 l160 -1 3 -373z
m1382 -562 l0 -940 -174 0 c-149 0 -175 2 -180 16 -8 21 -8 733 1 1362 l6 502
174 0 173 0 0 -940z m453 930 l157 0 0 -790 0 -790 270 0 270 0 0 -145 0 -145
-425 0 c-333 0 -425 3 -425 13 0 9 -3 9 -9 -1 -5 -8 -17 -12 -27 -10 -22 4
-21 -36 -16 1224 l2 656 23 -6 c12 -3 93 -6 180 -6z m1817 -115 l0 -125 -290
0 -290 0 0 -270 0 -270 255 0 255 0 0 -125 0 -125 -255 0 -255 0 0 -275 0
-275 290 0 c269 0 290 -1 291 -17 3 -122 -4 -269 -14 -276 -7 -4 -32 -4 -57 0
-25 4 -227 7 -450 8 l-405 0 -3 932 -2 932 47 4 c27 2 236 4 466 5 l417 2 0
-125z m-2832 -3792 c-27 -2 -69 -2 -95 0 -27 2 -5 3 47 3 52 0 74 -1 48 -3z"/>
<path d="M9158 13283 c17 -2 47 -2 65 0 17 2 3 4 -33 4 -36 0 -50 -2 -32 -4z" fill="#722F37"/>
<path d="M7876 6733 c-3 -3 -6 -307 -6 -675 0 -587 2 -668 15 -668 13 0 15 81
15 669 0 369 -4 672 -9 675 -4 3 -11 3 -15 -1z" fill="#722F37"/>
<path d="M8636 5203 c-6 -14 -5 -15 5 -6 7 7 10 15 7 18 -3 3 -9 -2 -12 -12z" fill="#722F37"/>
<path d="M8910 6186 c0 -224 4 -346 10 -346 6 0 10 120 10 339 0 216 -4 342
-10 346 -7 4 -10 -112 -10 -339z" fill="#722F37"/>
<path d="M9583 6213 c20 -2 54 -2 75 0 20 2 3 4 -38 4 -41 0 -58 -2 -37 -4z" fill="#722F37"/>
<path d="M10934 6926 c-3 -19 -2 -83 4 -143 l9 -108 -1 143 c0 78 -1 142 -3
142 -1 0 -5 -15 -9 -34z" fill="#722F37"/>
<path d="M10942 5305 c0 -16 2 -22 5 -12 2 9 2 23 0 30 -3 6 -5 -1 -5 -18z" fill="#722F37"/>
<path d="M10942 5230 c0 -19 2 -27 5 -17 2 9 2 25 0 35 -3 9 -5 1 -5 -18z" fill="#722F37"/>
<path d="M14542 10967 c-1 -4277 1 -6416 8 -6412 12 7 12 12596 1 12740 -5 50
-9 -2798 -9 -6328z" fill="#722F37"/>
<path d="M14291 4394 c0 -11 3 -14 6 -6 3 7 2 16 -1 19 -3 4 -6 -2 -5 -13z" fill="#722F37"/>
<path d="M9725 3049 c50 -5 83 -5 89 1 7 7 -22 10 -79 9 l-90 -2 80 -8z" fill="#722F37"/>
</g>
</svg>
