<?xml version="1.0" standalone="no"?>
<!DOCTYPE svg PUBLIC "-//W3C//DTD SVG 20010904//EN"
 "http://www.w3.org/TR/2001/REC-SVG-20010904/DTD/svg10.dtd">
<svg version="1.0" xmlns="http://www.w3.org/2000/svg"
 width="2048.000000pt" height="2048.000000pt" viewBox="0 0 2048.000000 2048.000000"
 preserveAspectRatio="xMidYMid meet">

<g transform="translate(0.000000,2048.000000) scale(0.100000,-0.100000)"
fill="#FFFFFF" stroke="none">
<path d="M6465 17390 l-530 -5 0 -6410 0 -6409 55 -31 c30 -17 151 -94 268
-171 332 -217 511 -321 857 -498 585 -298 1123 -503 1690 -645 278 -69 625
-121 858 -128 164 -5 167 -6 167 -28 0 -22 1 -22 221 -28 292 -7 851 3 846 16
-1 5 -106 11 -252 14 -259 5 -345 13 -144 13 175 0 543 18 591 29 24 6 95 15
158 21 63 6 153 20 200 31 46 11 114 24 151 29 69 10 278 68 341 94 20 9 58
20 85 26 129 28 406 116 458 146 22 12 86 38 141 57 129 45 238 91 274 117 15
11 34 20 41 20 7 0 20 6 28 14 9 7 41 23 71 34 155 58 292 120 274 124 -13 4
4 16 56 40 41 19 109 51 150 71 41 19 92 42 113 51 28 11 37 21 37 39 0 19 8
26 43 36 41 12 221 114 232 131 3 4 15 6 28 4 18 -4 19 -3 4 4 -18 7 -18 8 0
24 23 20 68 43 137 69 31 11 54 24 51 28 -5 8 25 26 62 36 16 4 23 15 25 38 3
29 7 32 63 46 50 12 56 16 35 21 -23 6 -20 8 26 26 28 10 51 24 50 29 0 6 20
16 47 24 l47 15 0 6411 0 6412 -242 7 c-289 9 -7049 14 -7813 6z m3876 -1366
c22 -71 60 -198 84 -283 25 -84 48 -157 51 -162 3 -5 135 -9 295 -9 176 0 289
-4 289 -10 0 -30 -30 -61 -106 -108 -46 -30 -113 -77 -148 -105 -35 -29 -91
-72 -125 -96 -90 -64 -89 -57 -10 -306 61 -195 94 -301 103 -337 11 -47 -19
-34 -112 47 -79 67 -177 143 -321 247 l-51 37 -102 -69 c-57 -38 -141 -101
-188 -140 -94 -79 -188 -140 -215 -140 -16 0 -16 2 -2 23 22 34 71 177 129
377 27 96 51 180 52 186 0 6 -62 60 -139 120 -192 150 -204 158 -252 183 -40
20 -43 25 -43 61 l0 39 208 -6 c115 -3 243 -2 284 1 l76 8 7 36 c6 35 116 380
157 495 13 37 24 55 30 49 6 -6 28 -68 49 -138z" />
</g>
</svg>